<svg xmlns="http://www.w3.org/2000/svg" width="1200" height="360" viewBox="0 0 1200 360" role="img" aria-labelledby="title desc">
  <title id="title">SentimentScope AI and sentiment model evaluation workbench</title>
  <desc id="desc">A clean portfolio banner for a FastAPI and React machine learning project with sentiment analysis, explainability, model comparison, and AI text detection.</desc>
  <defs>
    <linearGradient id="surface" x1="0" y1="0" x2="1" y2="1">
      <stop offset="0" stop-color="#f8faf9"/>
      <stop offset="1" stop-color="#e8f0ed"/>
    </linearGradient>
    <linearGradient id="accent" x1="0" y1="0" x2="1" y2="0">
      <stop offset="0" stop-color="#1f6f5b"/>
      <stop offset="1" stop-color="#e7a13d"/>
    </linearGradient>
    <filter id="soft-shadow" x="-10%" y="-10%" width="120%" height="120%">
      <feDropShadow dx="0" dy="16" stdDeviation="18" flood-color="#31423c" flood-opacity="0.14"/>
    </filter>
  </defs>

  <rect width="1200" height="360" rx="28" fill="url(#surface)"/>
  <path d="M0 286 C150 248 284 318 438 278 C598 238 672 164 844 196 C1004 226 1094 158 1200 118 L1200 360 L0 360 Z" fill="#dce9e4"/>
  <path d="M0 306 C182 264 278 334 456 292 C626 252 720 188 880 218 C1020 244 1104 188 1200 148 L1200 360 L0 360 Z" fill="#cfe1db"/>

  <g transform="translate(72 58)">
    <rect width="112" height="112" rx="24" fill="#f9fbfa" stroke="#c8d6d1" stroke-width="2"/>
    <rect x="29" y="64" width="14" height="28" rx="4" fill="#f04e3e"/>
    <rect x="52" y="48" width="14" height="44" rx="4" fill="#f2b43f"/>
    <rect x="75" y="28" width="14" height="64" rx="4" fill="#16b892"/>
  </g>

  <g transform="translate(220 64)">
    <text x="0" y="0" fill="#172033" font-family="ui-sans-serif, system-ui, -apple-system, BlinkMacSystemFont, 'Segoe UI', sans-serif" font-size="56" font-weight="800" letter-spacing="-1">SentimentScope</text>
    <text x="0" y="44" fill="#506178" font-family="ui-sans-serif, system-ui, -apple-system, BlinkMacSystemFont, 'Segoe UI', sans-serif" font-size="24" font-weight="500">AI and sentiment model evaluation workbench</text>
    <rect x="0" y="78" width="454" height="10" rx="5" fill="url(#accent)"/>
  </g>

  <g transform="translate(72 222)" font-family="ui-monospace, SFMono-Regular, Menlo, Consolas, monospace" font-size="20">
    <g>
      <rect width="204" height="70" rx="16" fill="#f9fbfa" stroke="#c8d6d1"/>
      <text x="22" y="29" fill="#6a7789" font-size="15" font-weight="700">TASKS</text>
      <text x="22" y="54" fill="#172033" font-weight="700">sentiment + AI</text>
    </g>
    <g transform="translate(228 0)">
      <rect width="214" height="70" rx="16" fill="#f9fbfa" stroke="#c8d6d1"/>
      <text x="22" y="29" fill="#6a7789" font-size="15" font-weight="700">STACK</text>
      <text x="22" y="54" fill="#172033" font-weight="700">FastAPI + React</text>
    </g>
    <g transform="translate(466 0)">
      <rect width="252" height="70" rx="16" fill="#f9fbfa" stroke="#c8d6d1"/>
      <text x="22" y="29" fill="#6a7789" font-size="15" font-weight="700">ML SIGNALS</text>
      <text x="22" y="54" fill="#172033" font-weight="700">IG + disagreement</text>
    </g>
  </g>

  <g transform="translate(824 56)" filter="url(#soft-shadow)">
    <rect width="304" height="214" rx="22" fill="#f9fbfa" stroke="#c8d6d1"/>
    <text x="24" y="42" fill="#506178" font-family="ui-monospace, SFMono-Regular, Menlo, Consolas, monospace" font-size="16" font-weight="700">MODEL OUTPUT</text>
    <text x="24" y="76" fill="#172033" font-family="ui-sans-serif, system-ui, -apple-system, BlinkMacSystemFont, 'Segoe UI', sans-serif" font-size="24" font-weight="800">probabilistic signals</text>
    <rect x="24" y="112" width="256" height="12" rx="6" fill="#dfe8e4"/>
    <rect x="24" y="112" width="192" height="12" rx="6" fill="#1f6f5b"/>
    <rect x="24" y="146" width="256" height="12" rx="6" fill="#dfe8e4"/>
    <rect x="24" y="146" width="112" height="12" rx="6" fill="#e7a13d"/>
    <text x="24" y="190" fill="#506178" font-family="ui-monospace, SFMono-Regular, Menlo, Consolas, monospace" font-size="15">relative /api paths</text>
  </g>
</svg>
